<?xml version="1.0" encoding="UTF-8"?>
<svg xmlns="http://www.w3.org/2000/svg" style="background:#FFFFFF" viewBox="0 0 1288 373" width="100%"><g><path d="M 25.800000000000004 51 C -8.199999999999996 51, 278.2 66, 244.2 66" fill="none" stroke="#008400" stroke-width="0.9" opacity="0.9"></path><path d="M 244.2 66 C 278.2 66, 230.2 201, 196.2 201" fill="none" stroke="#008400" stroke-width="0.9" opacity="0.9"></path><path d="M 196.2 201 C 230.2 201, 631.8 201, 665.8 201" fill="none" stroke="#008400" stroke-width="0.9" opacity="0.9"></path><path d="M 244.2 51 C 278.2 51, -8.199999999999996 201, 25.800000000000004 201" fill="none" stroke="#008400" stroke-width="0.9" opacity="0.9"></path><path d="M 25.800000000000004 201 C -8.199999999999996 201, 550.2 201, 516.2 201" fill="none" stroke="#008400" stroke-width="0.9" opacity="0.9"></path><path d="M 345.8 36 C 311.8 36, -8.199999999999996 66, 25.800000000000004 66" fill="none" stroke="#008400" stroke-width="0.9" opacity="0.9"></path><path d="M 368.2 51 C 334.2 51, 575.8 111, 541.8 111" fill="none" stroke="#008400" stroke-width="0.9" opacity="0.9"></path><path d="M 541.8 111 C 575.8 111, 334.2 267, 368.2 267" fill="none" stroke="#008400" stroke-width="0.9" opacity="0.9"></path><path d="M 351.4 66 C 317.4 66, 1184.6 267, 1150.6 267" fill="none" stroke="#008400" stroke-width="0.9" opacity="0.9"></path><path d="M 1150.6 267 C 1184.6 267, -2.5999999999999943 333, 31.400000000000006 333" fill="none" stroke="#008400" stroke-width="0.9" opacity="0.9"></path><path d="M 31.400000000000006 333 C -2.5999999999999943 333, 317.4 333, 351.4 333" fill="none" stroke="#008400" stroke-width="0.9" opacity="0.9"></path><path d="M 362.6 81 C 328.6 81, 328.6 96, 362.6 96" fill="none" stroke="#008400" stroke-width="0.9" opacity="0.9"></path><path d="M 493.8 267 C 527.8 267, 654.2 267, 688.2 267" fill="none" stroke="#008400" stroke-width="0.9" opacity="0.9"></path></g><g><g class="sch-handle"><text x="91" y="18" font-size="9" fill="#008484" font-weight="700">U1</text><text x="179" y="18" font-size="8" fill="#000000" text-anchor="end">LM555</text><rect x="91" y="26" width="88" height="68" fill="#FFFFC2" stroke="#840000" stroke-width="1" rx="2"></rect></g><g><g class="sch-pin"><rect x="4" y="29" width="87" height="14" fill="transparent"></rect><line x1="91" y1="36" x2="80" y2="36" stroke="#000000" stroke-width="1"></line><g><rect x="50.2" y="29.5" width="28.799999999999997" height="13" rx="2.5" fill="#FFFFFF" stroke="#000000" stroke-width="0.8" opacity="0.9"></rect><text x="64.6" y="36.5" text-anchor="middle" dominant-baseline="middle" font-size="7.5" fill="#000000">GND</text></g></g><text x="95" y="36.5" font-size="7" fill="#000000" dominant-baseline="middle">1</text></g><g><g class="sch-pin"><rect x="179" y="29" width="87" height="14" fill="transparent"></rect><line x1="179" y1="36" x2="190" y2="36" stroke="#000000" stroke-width="1"></line><g><rect x="191" y="29.5" width="28.799999999999997" height="13" rx="2.5" fill="#FFFFFF" stroke="#840000" stroke-width="0.8" opacity="0.9"></rect><text x="205.4" y="36.5" text-anchor="middle" dominant-baseline="middle" font-size="7.5" fill="#840000">VCC</text></g></g><text x="175" y="36.5" font-size="7" fill="#000000" dominant-baseline="middle" text-anchor="end">8</text></g><g><g class="sch-pin"><rect x="4" y="44" width="87" height="14" fill="transparent"></rect><line x1="91" y1="51" x2="80" y2="51" stroke="#000000" stroke-width="1"></line><g><rect x="27.800000000000004" y="44.5" width="51.199999999999996" height="13" rx="2.5" fill="#FFFFFF" stroke="#008400" stroke-width="0.8" opacity="0.9"></rect><text x="53.400000000000006" y="51.5" text-anchor="middle" dominant-baseline="middle" font-size="7.5" fill="#008400">555_THR</text></g></g><text x="95" y="51.5" font-size="7" fill="#000000" dominant-baseline="middle">2</text></g><g><g class="sch-pin"><rect x="179" y="44" width="87" height="14" fill="transparent"></rect><line x1="179" y1="51" x2="190" y2="51" stroke="#000000" stroke-width="1"></line><g><rect x="191" y="44.5" width="51.199999999999996" height="13" rx="2.5" fill="#FFFFFF" stroke="#008400" stroke-width="0.8" opacity="0.9"></rect><text x="216.6" y="51.5" text-anchor="middle" dominant-baseline="middle" font-size="7.5" fill="#008400">555_DIS</text></g></g><text x="175" y="51.5" font-size="7" fill="#000000" dominant-baseline="middle" text-anchor="end">7</text></g><g><g class="sch-pin"><rect x="4" y="59" width="87" height="14" fill="transparent"></rect><line x1="91" y1="66" x2="80" y2="66" stroke="#000000" stroke-width="1"></line><g><rect x="27.800000000000004" y="59.5" width="51.199999999999996" height="13" rx="2.5" fill="#FFFFFF" stroke="#008400" stroke-width="0.8" opacity="0.9"></rect><text x="53.400000000000006" y="66.5" text-anchor="middle" dominant-baseline="middle" font-size="7.5" fill="#008400">555_OUT</text></g></g><text x="95" y="66.5" font-size="7" fill="#000000" dominant-baseline="middle">3</text></g><g><g class="sch-pin"><rect x="179" y="59" width="87" height="14" fill="transparent"></rect><line x1="179" y1="66" x2="190" y2="66" stroke="#000000" stroke-width="1"></line><g><rect x="191" y="59.5" width="51.199999999999996" height="13" rx="2.5" fill="#FFFFFF" stroke="#008400" stroke-width="0.8" opacity="0.9"></rect><text x="216.6" y="66.5" text-anchor="middle" dominant-baseline="middle" font-size="7.5" fill="#008400">555_THR</text></g></g><text x="175" y="66.5" font-size="7" fill="#000000" dominant-baseline="middle" text-anchor="end">6</text></g><g><g class="sch-pin"><rect x="4" y="74" width="87" height="14" fill="transparent"></rect><line x1="91" y1="81" x2="80" y2="81" stroke="#000000" stroke-width="1"></line></g><text x="95" y="81.5" font-size="7" fill="#000000" dominant-baseline="middle">4</text></g><g><g class="sch-pin"><rect x="179" y="74" width="87" height="14" fill="transparent"></rect><line x1="179" y1="81" x2="190" y2="81" stroke="#000000" stroke-width="1"></line><g><rect x="191" y="74.5" width="45.599999999999994" height="13" rx="2.5" fill="#FFFFFF" stroke="#008400" stroke-width="0.8" opacity="0.9"></rect><text x="213.8" y="81.5" text-anchor="middle" dominant-baseline="middle" font-size="7.5" fill="#008400">555_CV</text></g></g><text x="175" y="81.5" font-size="7" fill="#000000" dominant-baseline="middle" text-anchor="end">5</text></g></g><g><g class="sch-handle"><text x="411" y="18" font-size="9" fill="#008484" font-weight="700">U2</text><text x="499" y="18" font-size="8" fill="#000000" text-anchor="end">74HC14</text><rect x="411" y="26" width="88" height="113" fill="#FFFFC2" stroke="#840000" stroke-width="1" rx="2"></rect></g><g><g class="sch-pin"><rect x="324" y="29" width="87" height="14" fill="transparent"></rect><line x1="411" y1="36" x2="400" y2="36" stroke="#000000" stroke-width="1"></line><g><rect x="347.8" y="29.5" width="51.199999999999996" height="13" rx="2.5" fill="#FFFFFF" stroke="#008400" stroke-width="0.8" opacity="0.9"></rect><text x="373.40000000000003" y="36.5" text-anchor="middle" dominant-baseline="middle" font-size="7.5" fill="#008400">555_OUT</text></g></g><text x="415" y="36.5" font-size="7" fill="#000000" dominant-baseline="middle">1</text></g><g><g class="sch-pin"><rect x="499" y="29" width="87" height="14" fill="transparent"></rect><line x1="499" y1="36" x2="510" y2="36" stroke="#000000" stroke-width="1"></line><g><rect x="511" y="29.5" width="28.799999999999997" height="13" rx="2.5" fill="#FFFFFF" stroke="#840000" stroke-width="0.8" opacity="0.9"></rect><text x="525.4" y="36.5" text-anchor="middle" dominant-baseline="middle" font-size="7.5" fill="#840000">VCC</text></g></g><text x="495" y="36.5" font-size="7" fill="#000000" dominant-baseline="middle" text-anchor="end">14</text></g><g><g class="sch-pin"><rect x="324" y="44" width="87" height="14" fill="transparent"></rect><line x1="411" y1="51" x2="400" y2="51" stroke="#000000" stroke-width="1"></line><g><rect x="370.2" y="44.5" width="28.799999999999997" height="13" rx="2.5" fill="#FFFFFF" stroke="#008400" stroke-width="0.8" opacity="0.9"></rect><text x="384.59999999999997" y="51.5" text-anchor="middle" dominant-baseline="middle" font-size="7.5" fill="#008400">CLK</text></g></g><text x="415" y="51.5" font-size="7" fill="#000000" dominant-baseline="middle">2</text></g><g><g class="sch-pin"><rect x="499" y="44" width="87" height="14" fill="transparent"></rect><line x1="499" y1="51" x2="510" y2="51" stroke="#000000" stroke-width="1"></line></g><text x="495" y="51.5" font-size="7" fill="#000000" dominant-baseline="middle" text-anchor="end">13</text></g><g><g class="sch-pin"><rect x="324" y="59" width="87" height="14" fill="transparent"></rect><line x1="411" y1="66" x2="400" y2="66" stroke="#000000" stroke-width="1"></line><g><rect x="353.4" y="59.5" width="45.599999999999994" height="13" rx="2.5" fill="#FFFFFF" stroke="#008400" stroke-width="0.8" opacity="0.9"></rect><text x="376.2" y="66.5" text-anchor="middle" dominant-baseline="middle" font-size="7.5" fill="#008400">RES_RC</text></g></g><text x="415" y="66.5" font-size="7" fill="#000000" dominant-baseline="middle">3</text></g><g><g class="sch-pin"><rect x="499" y="59" width="87" height="14" fill="transparent"></rect><line x1="499" y1="66" x2="510" y2="66" stroke="#000000" stroke-width="1"></line></g><text x="495" y="66.5" font-size="7" fill="#000000" dominant-baseline="middle" text-anchor="end">12</text></g><g><g class="sch-pin"><rect x="324" y="74" width="87" height="14" fill="transparent"></rect><line x1="411" y1="81" x2="400" y2="81" stroke="#000000" stroke-width="1"></line><g><rect x="364.6" y="74.5" width="34.4" height="13" rx="2.5" fill="#FFFFFF" stroke="#008400" stroke-width="0.8" opacity="0.9"></rect><text x="381.8" y="81.5" text-anchor="middle" dominant-baseline="middle" font-size="7.5" fill="#008400">RESP</text></g></g><text x="415" y="81.5" font-size="7" fill="#000000" dominant-baseline="middle">4</text></g><g><g class="sch-pin"><rect x="499" y="74" width="87" height="14" fill="transparent"></rect><line x1="499" y1="81" x2="510" y2="81" stroke="#000000" stroke-width="1"></line></g><text x="495" y="81.5" font-size="7" fill="#000000" dominant-baseline="middle" text-anchor="end">11</text></g><g><g class="sch-pin"><rect x="324" y="89" width="87" height="14" fill="transparent"></rect><line x1="411" y1="96" x2="400" y2="96" stroke="#000000" stroke-width="1"></line><g><rect x="364.6" y="89.5" width="34.4" height="13" rx="2.5" fill="#FFFFFF" stroke="#008400" stroke-width="0.8" opacity="0.9"></rect><text x="381.8" y="96.5" text-anchor="middle" dominant-baseline="middle" font-size="7.5" fill="#008400">RESP</text></g></g><text x="415" y="96.5" font-size="7" fill="#000000" dominant-baseline="middle">5</text></g><g><g class="sch-pin"><rect x="499" y="89" width="87" height="14" fill="transparent"></rect><line x1="499" y1="96" x2="510" y2="96" stroke="#000000" stroke-width="1"></line></g><text x="495" y="96.5" font-size="7" fill="#000000" dominant-baseline="middle" text-anchor="end">10</text></g><g><g class="sch-pin"><rect x="324" y="104" width="87" height="14" fill="transparent"></rect><line x1="411" y1="111" x2="400" y2="111" stroke="#000000" stroke-width="1"></line><g><rect x="364.6" y="104.5" width="34.4" height="13" rx="2.5" fill="#FFFFFF" stroke="#008400" stroke-width="0.8" opacity="0.9"></rect><text x="381.8" y="111.5" text-anchor="middle" dominant-baseline="middle" font-size="7.5" fill="#008400">RES~</text></g></g><text x="415" y="111.5" font-size="7" fill="#000000" dominant-baseline="middle">6</text></g><g><g class="sch-pin"><rect x="499" y="104" width="87" height="14" fill="transparent"></rect><line x1="499" y1="111" x2="510" y2="111" stroke="#000000" stroke-width="1"></line><g><rect x="511" y="104.5" width="28.799999999999997" height="13" rx="2.5" fill="#FFFFFF" stroke="#008400" stroke-width="0.8" opacity="0.9"></rect><text x="525.4" y="111.5" text-anchor="middle" dominant-baseline="middle" font-size="7.5" fill="#008400">CLK</text></g></g><text x="495" y="111.5" font-size="7" fill="#000000" dominant-baseline="middle" text-anchor="end">9</text></g><g><g class="sch-pin"><rect x="324" y="119" width="87" height="14" fill="transparent"></rect><line x1="411" y1="126" x2="400" y2="126" stroke="#000000" stroke-width="1"></line><g><rect x="370.2" y="119.5" width="28.799999999999997" height="13" rx="2.5" fill="#FFFFFF" stroke="#000000" stroke-width="0.8" opacity="0.9"></rect><text x="384.59999999999997" y="126.5" text-anchor="middle" dominant-baseline="middle" font-size="7.5" fill="#000000">GND</text></g></g><text x="415" y="126.5" font-size="7" fill="#000000" dominant-baseline="middle">7</text></g><g><g class="sch-pin"><rect x="499" y="119" width="87" height="14" fill="transparent"></rect><line x1="499" y1="126" x2="510" y2="126" stroke="#000000" stroke-width="1"></line><g><rect x="511" y="119.5" width="34.4" height="13" rx="2.5" fill="#FFFFFF" stroke="#008400" stroke-width="0.8" opacity="0.9"></rect><text x="528.2" y="126.5" text-anchor="middle" dominant-baseline="middle" font-size="7.5" fill="#008400">CLKG</text></g></g><text x="495" y="126.5" font-size="7" fill="#000000" dominant-baseline="middle" text-anchor="end">8</text></g></g><g><g class="sch-handle"><text x="91" y="181" font-size="9" fill="#008484" font-weight="700">R1</text><text x="131" y="181" font-size="8" fill="#000000" text-anchor="end">1M</text><g stroke="#0000C2" stroke-width="1.2" fill="none"><rect x="95" y="196" width="32" height="10"></rect><line x1="91" y1="201" x2="95" y2="201"></line><line x1="127" y1="201" x2="131" y2="201"></line></g></g><g class="sch-pin"><rect x="4" y="194" width="87" height="14" fill="transparent"></rect><line x1="91" y1="201" x2="80" y2="201" stroke="#000000" stroke-width="1"></line><g><rect x="27.800000000000004" y="194.5" width="51.199999999999996" height="13" rx="2.5" fill="#FFFFFF" stroke="#008400" stroke-width="0.8" opacity="0.9"></rect><text x="53.400000000000006" y="201.5" text-anchor="middle" dominant-baseline="middle" font-size="7.5" fill="#008400">555_DIS</text></g></g><g class="sch-pin"><rect x="131" y="194" width="87" height="14" fill="transparent"></rect><line x1="131" y1="201" x2="142" y2="201" stroke="#000000" stroke-width="1"></line><g><rect x="143" y="194.5" width="51.199999999999996" height="13" rx="2.5" fill="#FFFFFF" stroke="#008400" stroke-width="0.8" opacity="0.9"></rect><text x="168.6" y="201.5" text-anchor="middle" dominant-baseline="middle" font-size="7.5" fill="#008400">555_THR</text></g></g><g class="sch-pin"><rect x="111" y="182" width="87" height="14" fill="transparent"></rect><line x1="111" y1="189" x2="122" y2="189" stroke="#000000" stroke-width="1"></line><g stroke="#840000" stroke-width="1"><line x1="119" y1="186" x2="125" y2="192"></line><line x1="119" y1="192" x2="125" y2="186"></line></g></g></g><g><g class="sch-handle"><text x="411" y="181" font-size="9" fill="#008484" font-weight="700">R2</text><text x="451" y="181" font-size="8" fill="#000000" text-anchor="end">1K</text><rect x="411" y="196" width="40" height="10" fill="none" stroke="#840000" stroke-width="1.2"></rect></g><g class="sch-pin"><rect x="324" y="194" width="87" height="14" fill="transparent"></rect><line x1="411" y1="201" x2="400" y2="201" stroke="#000000" stroke-width="1"></line><g><rect x="370.2" y="194.5" width="28.799999999999997" height="13" rx="2.5" fill="#FFFFFF" stroke="#840000" stroke-width="0.8" opacity="0.9"></rect><text x="384.59999999999997" y="201.5" text-anchor="middle" dominant-baseline="middle" font-size="7.5" fill="#840000">VCC</text></g></g><g class="sch-pin"><rect x="451" y="194" width="87" height="14" fill="transparent"></rect><line x1="451" y1="201" x2="462" y2="201" stroke="#000000" stroke-width="1"></line><g><rect x="463" y="194.5" width="51.199999999999996" height="13" rx="2.5" fill="#FFFFFF" stroke="#008400" stroke-width="0.8" opacity="0.9"></rect><text x="488.6" y="201.5" text-anchor="middle" dominant-baseline="middle" font-size="7.5" fill="#008400">555_DIS</text></g></g></g><g><g class="sch-handle"><text x="731" y="181" font-size="9" fill="#008484" font-weight="700">C1</text><text x="771" y="181" font-size="8" fill="#000000" text-anchor="end">10nF</text><g stroke="#840000" stroke-width="1.4"><line x1="748" y1="193" x2="748" y2="209"></line><line x1="754" y1="193" x2="754" y2="209"></line><line x1="731" y1="201" x2="748" y2="201"></line><line x1="754" y1="201" x2="771" y2="201"></line></g></g><g class="sch-pin"><rect x="644" y="194" width="87" height="14" fill="transparent"></rect><line x1="731" y1="201" x2="720" y2="201" stroke="#000000" stroke-width="1"></line><g><rect x="667.8" y="194.5" width="51.199999999999996" height="13" rx="2.5" fill="#FFFFFF" stroke="#008400" stroke-width="0.8" opacity="0.9"></rect><text x="693.4" y="201.5" text-anchor="middle" dominant-baseline="middle" font-size="7.5" fill="#008400">555_THR</text></g></g><g class="sch-pin"><rect x="771" y="194" width="87" height="14" fill="transparent"></rect><line x1="771" y1="201" x2="782" y2="201" stroke="#000000" stroke-width="1"></line><g><rect x="783" y="194.5" width="28.799999999999997" height="13" rx="2.5" fill="#FFFFFF" stroke="#000000" stroke-width="0.8" opacity="0.9"></rect><text x="797.4" y="201.5" text-anchor="middle" dominant-baseline="middle" font-size="7.5" fill="#000000">GND</text></g></g></g><g><g class="sch-handle"><text x="1051" y="181" font-size="9" fill="#008484" font-weight="700">SW1</text><text x="1091" y="181" font-size="8" fill="#000000" text-anchor="end">step</text><g stroke="#000000" stroke-width="1.2" fill="#000000"><line x1="1051" y1="201" x2="1061" y2="201"></line><circle cx="1063" cy="201" r="2"></circle><line x1="1063" y1="201" x2="1079" y2="192"></line><circle cx="1079" cy="201" r="2"></circle><line x1="1081" y1="201" x2="1091" y2="201"></line></g></g><g class="sch-pin"><rect x="964" y="194" width="87" height="14" fill="transparent"></rect><line x1="1051" y1="201" x2="1040" y2="201" stroke="#000000" stroke-width="1"></line><g><rect x="987.8" y="194.5" width="51.199999999999996" height="13" rx="2.5" fill="#FFFFFF" stroke="#008400" stroke-width="0.8" opacity="0.9"></rect><text x="1013.4" y="201.5" text-anchor="middle" dominant-baseline="middle" font-size="7.5" fill="#008400">SW1_DEB</text></g></g><g class="sch-pin"><rect x="1091" y="194" width="87" height="14" fill="transparent"></rect><line x1="1091" y1="201" x2="1102" y2="201" stroke="#000000" stroke-width="1"></line><g><rect x="1103" y="194.5" width="28.799999999999997" height="13" rx="2.5" fill="#FFFFFF" stroke="#000000" stroke-width="0.8" opacity="0.9"></rect><text x="1117.4" y="201.5" text-anchor="middle" dominant-baseline="middle" font-size="7.5" fill="#000000">GND</text></g></g></g><g><g class="sch-handle"><text x="91" y="247" font-size="9" fill="#008484" font-weight="700">SW2</text><text x="131" y="247" font-size="8" fill="#000000" text-anchor="end">mode</text><g stroke="#000000" stroke-width="1.2" fill="#000000"><line x1="91" y1="267" x2="101" y2="267"></line><circle cx="103" cy="267" r="2"></circle><line x1="103" y1="267" x2="119" y2="258"></line><circle cx="119" cy="267" r="2"></circle><line x1="121" y1="267" x2="131" y2="267"></line></g></g><g class="sch-pin"><rect x="4" y="260" width="87" height="14" fill="transparent"></rect><line x1="91" y1="267" x2="80" y2="267" stroke="#000000" stroke-width="1"></line><g><rect x="27.800000000000004" y="260.5" width="51.199999999999996" height="13" rx="2.5" fill="#FFFFFF" stroke="#008400" stroke-width="0.8" opacity="0.9"></rect><text x="53.400000000000006" y="267.5" text-anchor="middle" dominant-baseline="middle" font-size="7.5" fill="#008400">SW2_DEB</text></g></g><g class="sch-pin"><rect x="131" y="260" width="87" height="14" fill="transparent"></rect><line x1="131" y1="267" x2="142" y2="267" stroke="#000000" stroke-width="1"></line><g><rect x="143" y="260.5" width="28.799999999999997" height="13" rx="2.5" fill="#FFFFFF" stroke="#000000" stroke-width="0.8" opacity="0.9"></rect><text x="157.4" y="267.5" text-anchor="middle" dominant-baseline="middle" font-size="7.5" fill="#000000">GND</text></g></g></g><g><g class="sch-handle"><text x="411" y="247" font-size="9" fill="#008484" font-weight="700">R4</text><text x="451" y="247" font-size="8" fill="#000000" text-anchor="end">470</text><rect x="411" y="262" width="40" height="10" fill="none" stroke="#840000" stroke-width="1.2"></rect></g><g class="sch-pin"><rect x="324" y="260" width="87" height="14" fill="transparent"></rect><line x1="411" y1="267" x2="400" y2="267" stroke="#000000" stroke-width="1"></line><g><rect x="370.2" y="260.5" width="28.799999999999997" height="13" rx="2.5" fill="#FFFFFF" stroke="#008400" stroke-width="0.8" opacity="0.9"></rect><text x="384.59999999999997" y="267.5" text-anchor="middle" dominant-baseline="middle" font-size="7.5" fill="#008400">CLK</text></g></g><g class="sch-pin"><rect x="451" y="260" width="87" height="14" fill="transparent"></rect><line x1="451" y1="267" x2="462" y2="267" stroke="#000000" stroke-width="1"></line><g><rect x="463" y="260.5" width="28.799999999999997" height="13" rx="2.5" fill="#FFFFFF" stroke="#008400" stroke-width="0.8" opacity="0.9"></rect><text x="477.4" y="267.5" text-anchor="middle" dominant-baseline="middle" font-size="7.5" fill="#008400">D1A</text></g></g></g><g><g class="sch-handle"><text x="731" y="247" font-size="9" fill="#008484" font-weight="700">D1</text><text x="771" y="247" font-size="8" fill="#000000" text-anchor="end">clk</text><g stroke="#4c8dff" stroke-width="1.2" fill="none"><line x1="731" y1="267" x2="743" y2="267"></line><polygon points="743,260 743,274 757,267"></polygon><line x1="757" y1="260" x2="757" y2="274"></line><line x1="757" y1="267" x2="771" y2="267"></line></g></g><g class="sch-pin"><rect x="644" y="260" width="87" height="14" fill="transparent"></rect><line x1="731" y1="267" x2="720" y2="267" stroke="#000000" stroke-width="1"></line><g><rect x="690.2" y="260.5" width="28.799999999999997" height="13" rx="2.5" fill="#FFFFFF" stroke="#008400" stroke-width="0.8" opacity="0.9"></rect><text x="704.6" y="267.5" text-anchor="middle" dominant-baseline="middle" font-size="7.5" fill="#008400">D1A</text></g></g><g class="sch-pin"><rect x="771" y="260" width="87" height="14" fill="transparent"></rect><line x1="771" y1="267" x2="782" y2="267" stroke="#000000" stroke-width="1"></line><g><rect x="783" y="260.5" width="28.799999999999997" height="13" rx="2.5" fill="#FFFFFF" stroke="#000000" stroke-width="0.8" opacity="0.9"></rect><text x="797.4" y="267.5" text-anchor="middle" dominant-baseline="middle" font-size="7.5" fill="#000000">GND</text></g></g></g><g><g class="sch-handle"><text x="1051" y="247" font-size="9" fill="#008484" font-weight="700">R3</text><text x="1091" y="247" font-size="8" fill="#000000" text-anchor="end">10K</text><rect x="1051" y="262" width="40" height="10" fill="none" stroke="#840000" stroke-width="1.2"></rect></g><g class="sch-pin"><rect x="964" y="260" width="87" height="14" fill="transparent"></rect><line x1="1051" y1="267" x2="1040" y2="267" stroke="#000000" stroke-width="1"></line><g><rect x="1010.2" y="260.5" width="28.799999999999997" height="13" rx="2.5" fill="#FFFFFF" stroke="#840000" stroke-width="0.8" opacity="0.9"></rect><text x="1024.6000000000001" y="267.5" text-anchor="middle" dominant-baseline="middle" font-size="7.5" fill="#840000">VCC</text></g></g><g class="sch-pin"><rect x="1091" y="260" width="87" height="14" fill="transparent"></rect><line x1="1091" y1="267" x2="1102" y2="267" stroke="#000000" stroke-width="1"></line><g><rect x="1103" y="260.5" width="45.599999999999994" height="13" rx="2.5" fill="#FFFFFF" stroke="#008400" stroke-width="0.8" opacity="0.9"></rect><text x="1125.8" y="267.5" text-anchor="middle" dominant-baseline="middle" font-size="7.5" fill="#008400">RES_RC</text></g></g></g><g><g class="sch-handle"><text x="91" y="313" font-size="9" fill="#008484" font-weight="700">C2</text><text x="131" y="313" font-size="8" fill="#000000" text-anchor="end">10uF</text><g stroke="#840000" stroke-width="1.4"><line x1="108" y1="325" x2="108" y2="341"></line><line x1="114" y1="325" x2="114" y2="341"></line><line x1="91" y1="333" x2="108" y2="333"></line><line x1="114" y1="333" x2="131" y2="333"></line></g></g><g class="sch-pin"><rect x="4" y="326" width="87" height="14" fill="transparent"></rect><line x1="91" y1="333" x2="80" y2="333" stroke="#000000" stroke-width="1"></line><g><rect x="33.400000000000006" y="326.5" width="45.599999999999994" height="13" rx="2.5" fill="#FFFFFF" stroke="#008400" stroke-width="0.8" opacity="0.9"></rect><text x="56.2" y="333.5" text-anchor="middle" dominant-baseline="middle" font-size="7.5" fill="#008400">RES_RC</text></g></g><g class="sch-pin"><rect x="131" y="326" width="87" height="14" fill="transparent"></rect><line x1="131" y1="333" x2="142" y2="333" stroke="#000000" stroke-width="1"></line><g><rect x="143" y="326.5" width="28.799999999999997" height="13" rx="2.5" fill="#FFFFFF" stroke="#000000" stroke-width="0.8" opacity="0.9"></rect><text x="157.4" y="333.5" text-anchor="middle" dominant-baseline="middle" font-size="7.5" fill="#000000">GND</text></g></g></g><g><g class="sch-handle"><text x="411" y="313" font-size="9" fill="#008484" font-weight="700">SW4</text><text x="451" y="313" font-size="8" fill="#000000" text-anchor="end">reset</text><g stroke="#000000" stroke-width="1.2" fill="#000000"><line x1="411" y1="333" x2="421" y2="333"></line><circle cx="423" cy="333" r="2"></circle><line x1="423" y1="333" x2="439" y2="324"></line><circle cx="439" cy="333" r="2"></circle><line x1="441" y1="333" x2="451" y2="333"></line></g></g><g class="sch-pin"><rect x="324" y="326" width="87" height="14" fill="transparent"></rect><line x1="411" y1="333" x2="400" y2="333" stroke="#000000" stroke-width="1"></line><g><rect x="353.4" y="326.5" width="45.599999999999994" height="13" rx="2.5" fill="#FFFFFF" stroke="#008400" stroke-width="0.8" opacity="0.9"></rect><text x="376.2" y="333.5" text-anchor="middle" dominant-baseline="middle" font-size="7.5" fill="#008400">RES_RC</text></g></g><g class="sch-pin"><rect x="451" y="326" width="87" height="14" fill="transparent"></rect><line x1="451" y1="333" x2="462" y2="333" stroke="#000000" stroke-width="1"></line><g><rect x="463" y="326.5" width="28.799999999999997" height="13" rx="2.5" fill="#FFFFFF" stroke="#000000" stroke-width="0.8" opacity="0.9"></rect><text x="477.4" y="333.5" text-anchor="middle" dominant-baseline="middle" font-size="7.5" fill="#000000">GND</text></g></g></g></svg>