<?xml version="1.0" encoding="UTF-8"?>
<svg xmlns="http://www.w3.org/2000/svg" style="background:#FFFFFF" viewBox="0 0 1288 412" width="100%"><g><path d="M 42.6 36 C 8.600000000000001 36, 901.4 81, 867.4 81" fill="none" stroke="#0000C2" stroke-width="0.9" opacity="0.9"></path><path d="M 48.2 51 C 14.200000000000003 51, 654.2 66, 688.2 66" fill="none" stroke="#008400" stroke-width="0.9" opacity="0.9"></path><path d="M 688.2 66 C 654.2 66, 334.2 255, 368.2 255" fill="none" stroke="#008400" stroke-width="0.9" opacity="0.9"></path><path d="M 368.2 255 C 334.2 255, 14.200000000000003 270, 48.2 270" fill="none" stroke="#008400" stroke-width="0.9" opacity="0.9"></path><path d="M 227.4 51 C 261.4 51, 901.4 66, 867.4 66" fill="none" stroke="#0000C2" stroke-width="0.9" opacity="0.9"></path><path d="M 688.2 51 C 654.2 51, 14.200000000000003 66, 48.2 66" fill="none" stroke="#008400" stroke-width="0.9" opacity="0.9"></path><path d="M 48.2 66 C 14.200000000000003 66, 334.2 240, 368.2 240" fill="none" stroke="#008400" stroke-width="0.9" opacity="0.9"></path><path d="M 368.2 240 C 334.2 240, 14.200000000000003 255, 48.2 255" fill="none" stroke="#008400" stroke-width="0.9" opacity="0.9"></path><path d="M 227.4 81 C 261.4 81, 328.6 81, 362.6 81" fill="none" stroke="#008400" stroke-width="0.9" opacity="0.9"></path><path d="M 227.4 96 C 261.4 96, 328.6 96, 362.6 96" fill="none" stroke="#008400" stroke-width="0.9" opacity="0.9"></path><path d="M 688.2 81 C 654.2 81, 14.200000000000003 111, 48.2 111" fill="none" stroke="#008400" stroke-width="0.9" opacity="0.9"></path><path d="M 48.2 111 C 14.200000000000003 111, 334.2 270, 368.2 270" fill="none" stroke="#008400" stroke-width="0.9" opacity="0.9"></path><path d="M 368.2 270 C 334.2 270, 14.200000000000003 285, 48.2 285" fill="none" stroke="#008400" stroke-width="0.9" opacity="0.9"></path><path d="M 227.4 111 C 261.4 111, 581.4 111, 547.4 111" fill="none" stroke="#008400" stroke-width="0.9" opacity="0.9"></path><path d="M 688.2 96 C 654.2 96, 14.200000000000003 126, 48.2 126" fill="none" stroke="#008400" stroke-width="0.9" opacity="0.9"></path><path d="M 48.2 126 C 14.200000000000003 126, 334.2 285, 368.2 285" fill="none" stroke="#008400" stroke-width="0.9" opacity="0.9"></path><path d="M 368.2 285 C 334.2 285, 14.200000000000003 300, 48.2 300" fill="none" stroke="#008400" stroke-width="0.9" opacity="0.9"></path><path d="M 867.4 96 C 901.4 96, 261.4 126, 227.4 126" fill="none" stroke="#0000C2" stroke-width="0.9" opacity="0.9"></path><path d="M 867.4 111 C 901.4 111, 261.4 141, 227.4 141" fill="none" stroke="#0000C2" stroke-width="0.9" opacity="0.9"></path><path d="M 362.6 36 C 328.6 36, 901.4 141, 867.4 141" fill="none" stroke="#0000C2" stroke-width="0.9" opacity="0.9"></path><path d="M 368.2 51 C 334.2 51, 654.2 126, 688.2 126" fill="none" stroke="#008400" stroke-width="0.9" opacity="0.9"></path><path d="M 688.2 126 C 654.2 126, 334.2 315, 368.2 315" fill="none" stroke="#008400" stroke-width="0.9" opacity="0.9"></path><path d="M 368.2 315 C 334.2 315, 14.200000000000003 330, 48.2 330" fill="none" stroke="#008400" stroke-width="0.9" opacity="0.9"></path><path d="M 547.4 51 C 581.4 51, 901.4 126, 867.4 126" fill="none" stroke="#0000C2" stroke-width="0.9" opacity="0.9"></path><path d="M 368.2 66 C 334.2 66, 654.2 111, 688.2 111" fill="none" stroke="#008400" stroke-width="0.9" opacity="0.9"></path><path d="M 688.2 111 C 654.2 111, 334.2 300, 368.2 300" fill="none" stroke="#008400" stroke-width="0.9" opacity="0.9"></path><path d="M 368.2 300 C 334.2 300, 14.200000000000003 315, 48.2 315" fill="none" stroke="#008400" stroke-width="0.9" opacity="0.9"></path><path d="M 368.2 111 C 334.2 111, 654.2 141, 688.2 141" fill="none" stroke="#008400" stroke-width="0.9" opacity="0.9"></path><path d="M 688.2 141 C 654.2 141, 334.2 330, 368.2 330" fill="none" stroke="#008400" stroke-width="0.9" opacity="0.9"></path><path d="M 368.2 330 C 334.2 330, 14.200000000000003 345, 48.2 345" fill="none" stroke="#008400" stroke-width="0.9" opacity="0.9"></path><path d="M 368.2 126 C 334.2 126, 654.2 156, 688.2 156" fill="none" stroke="#008400" stroke-width="0.9" opacity="0.9"></path><path d="M 688.2 156 C 654.2 156, 334.2 345, 368.2 345" fill="none" stroke="#008400" stroke-width="0.9" opacity="0.9"></path><path d="M 368.2 345 C 334.2 345, 14.200000000000003 360, 48.2 360" fill="none" stroke="#008400" stroke-width="0.9" opacity="0.9"></path><path d="M 547.4 126 C 581.4 126, 901.4 156, 867.4 156" fill="none" stroke="#0000C2" stroke-width="0.9" opacity="0.9"></path><path d="M 547.4 141 C 581.4 141, 901.4 171, 867.4 171" fill="none" stroke="#0000C2" stroke-width="0.9" opacity="0.9"></path></g><g><g class="sch-handle"><text x="91" y="18" font-size="9" fill="#008484" font-weight="700">U16</text><text x="179" y="18" font-size="8" fill="#000000" text-anchor="end">74HC193</text><rect x="91" y="26" width="88" height="128" fill="#FFFFC2" stroke="#840000" stroke-width="1" rx="2"></rect></g><g><g class="sch-pin"><rect x="4" y="29" width="87" height="14" fill="transparent"></rect><line x1="91" y1="36" x2="80" y2="36" stroke="#000000" stroke-width="1"></line><g><rect x="44.6" y="29.5" width="34.4" height="13" rx="2.5" fill="#FFFFFF" stroke="#0000C2" stroke-width="0.8" opacity="0.9"></rect><text x="61.8" y="36.5" text-anchor="middle" dominant-baseline="middle" font-size="7.5" fill="#0000C2">BUS1</text></g></g><text x="95" y="36.5" font-size="7" fill="#000000" dominant-baseline="middle">1</text></g><g><g class="sch-pin"><rect x="179" y="29" width="87" height="14" fill="transparent"></rect><line x1="179" y1="36" x2="190" y2="36" stroke="#000000" stroke-width="1"></line><g><rect x="191" y="29.5" width="28.799999999999997" height="13" rx="2.5" fill="#FFFFFF" stroke="#840000" stroke-width="0.8" opacity="0.9"></rect><text x="205.4" y="36.5" text-anchor="middle" dominant-baseline="middle" font-size="7.5" fill="#840000">VCC</text></g></g><text x="175" y="36.5" font-size="7" fill="#000000" dominant-baseline="middle" text-anchor="end">16</text></g><g><g class="sch-pin"><rect x="4" y="44" width="87" height="14" fill="transparent"></rect><line x1="91" y1="51" x2="80" y2="51" stroke="#000000" stroke-width="1"></line><g><rect x="50.2" y="44.5" width="28.799999999999997" height="13" rx="2.5" fill="#FFFFFF" stroke="#008400" stroke-width="0.8" opacity="0.9"></rect><text x="64.6" y="51.5" text-anchor="middle" dominant-baseline="middle" font-size="7.5" fill="#008400">SP1</text></g></g><text x="95" y="51.5" font-size="7" fill="#000000" dominant-baseline="middle">2</text></g><g><g class="sch-pin"><rect x="179" y="44" width="87" height="14" fill="transparent"></rect><line x1="179" y1="51" x2="190" y2="51" stroke="#000000" stroke-width="1"></line><g><rect x="191" y="44.5" width="34.4" height="13" rx="2.5" fill="#FFFFFF" stroke="#0000C2" stroke-width="0.8" opacity="0.9"></rect><text x="208.2" y="51.5" text-anchor="middle" dominant-baseline="middle" font-size="7.5" fill="#0000C2">BUS0</text></g></g><text x="175" y="51.5" font-size="7" fill="#000000" dominant-baseline="middle" text-anchor="end">15</text></g><g><g class="sch-pin"><rect x="4" y="59" width="87" height="14" fill="transparent"></rect><line x1="91" y1="66" x2="80" y2="66" stroke="#000000" stroke-width="1"></line><g><rect x="50.2" y="59.5" width="28.799999999999997" height="13" rx="2.5" fill="#FFFFFF" stroke="#008400" stroke-width="0.8" opacity="0.9"></rect><text x="64.6" y="66.5" text-anchor="middle" dominant-baseline="middle" font-size="7.5" fill="#008400">SP0</text></g></g><text x="95" y="66.5" font-size="7" fill="#000000" dominant-baseline="middle">3</text></g><g><g class="sch-pin"><rect x="179" y="59" width="87" height="14" fill="transparent"></rect><line x1="179" y1="66" x2="190" y2="66" stroke="#000000" stroke-width="1"></line><g><rect x="191" y="59.5" width="28.799999999999997" height="13" rx="2.5" fill="#FFFFFF" stroke="#000000" stroke-width="0.8" opacity="0.9"></rect><text x="205.4" y="66.5" text-anchor="middle" dominant-baseline="middle" font-size="7.5" fill="#000000">GND</text></g></g><text x="175" y="66.5" font-size="7" fill="#000000" dominant-baseline="middle" text-anchor="end">14</text></g><g><g class="sch-pin"><rect x="4" y="74" width="87" height="14" fill="transparent"></rect><line x1="91" y1="81" x2="80" y2="81" stroke="#000000" stroke-width="1"></line><g><rect x="44.6" y="74.5" width="34.4" height="13" rx="2.5" fill="#FFFFFF" stroke="#008400" stroke-width="0.8" opacity="0.9"></rect><text x="61.8" y="81.5" text-anchor="middle" dominant-baseline="middle" font-size="7.5" fill="#008400">SPDN</text></g></g><text x="95" y="81.5" font-size="7" fill="#000000" dominant-baseline="middle">4</text></g><g><g class="sch-pin"><rect x="179" y="74" width="87" height="14" fill="transparent"></rect><line x1="179" y1="81" x2="190" y2="81" stroke="#000000" stroke-width="1"></line><g><rect x="191" y="74.5" width="34.4" height="13" rx="2.5" fill="#FFFFFF" stroke="#008400" stroke-width="0.8" opacity="0.9"></rect><text x="208.2" y="81.5" text-anchor="middle" dominant-baseline="middle" font-size="7.5" fill="#008400">SPCB</text></g></g><text x="175" y="81.5" font-size="7" fill="#000000" dominant-baseline="middle" text-anchor="end">13</text></g><g><g class="sch-pin"><rect x="4" y="89" width="87" height="14" fill="transparent"></rect><line x1="91" y1="96" x2="80" y2="96" stroke="#000000" stroke-width="1"></line><g><rect x="50.2" y="89.5" width="28.799999999999997" height="13" rx="2.5" fill="#FFFFFF" stroke="#008400" stroke-width="0.8" opacity="0.9"></rect><text x="64.6" y="96.5" text-anchor="middle" dominant-baseline="middle" font-size="7.5" fill="#008400">SPU</text></g></g><text x="95" y="96.5" font-size="7" fill="#000000" dominant-baseline="middle">5</text></g><g><g class="sch-pin"><rect x="179" y="89" width="87" height="14" fill="transparent"></rect><line x1="179" y1="96" x2="190" y2="96" stroke="#000000" stroke-width="1"></line><g><rect x="191" y="89.5" width="34.4" height="13" rx="2.5" fill="#FFFFFF" stroke="#008400" stroke-width="0.8" opacity="0.9"></rect><text x="208.2" y="96.5" text-anchor="middle" dominant-baseline="middle" font-size="7.5" fill="#008400">SPCU</text></g></g><text x="175" y="96.5" font-size="7" fill="#000000" dominant-baseline="middle" text-anchor="end">12</text></g><g><g class="sch-pin"><rect x="4" y="104" width="87" height="14" fill="transparent"></rect><line x1="91" y1="111" x2="80" y2="111" stroke="#000000" stroke-width="1"></line><g><rect x="50.2" y="104.5" width="28.799999999999997" height="13" rx="2.5" fill="#FFFFFF" stroke="#008400" stroke-width="0.8" opacity="0.9"></rect><text x="64.6" y="111.5" text-anchor="middle" dominant-baseline="middle" font-size="7.5" fill="#008400">SP2</text></g></g><text x="95" y="111.5" font-size="7" fill="#000000" dominant-baseline="middle">6</text></g><g><g class="sch-pin"><rect x="179" y="104" width="87" height="14" fill="transparent"></rect><line x1="179" y1="111" x2="190" y2="111" stroke="#000000" stroke-width="1"></line><g><rect x="191" y="104.5" width="34.4" height="13" rx="2.5" fill="#FFFFFF" stroke="#008400" stroke-width="0.8" opacity="0.9"></rect><text x="208.2" y="111.5" text-anchor="middle" dominant-baseline="middle" font-size="7.5" fill="#008400">SPL~</text></g></g><text x="175" y="111.5" font-size="7" fill="#000000" dominant-baseline="middle" text-anchor="end">11</text></g><g><g class="sch-pin"><rect x="4" y="119" width="87" height="14" fill="transparent"></rect><line x1="91" y1="126" x2="80" y2="126" stroke="#000000" stroke-width="1"></line><g><rect x="50.2" y="119.5" width="28.799999999999997" height="13" rx="2.5" fill="#FFFFFF" stroke="#008400" stroke-width="0.8" opacity="0.9"></rect><text x="64.6" y="126.5" text-anchor="middle" dominant-baseline="middle" font-size="7.5" fill="#008400">SP3</text></g></g><text x="95" y="126.5" font-size="7" fill="#000000" dominant-baseline="middle">7</text></g><g><g class="sch-pin"><rect x="179" y="119" width="87" height="14" fill="transparent"></rect><line x1="179" y1="126" x2="190" y2="126" stroke="#000000" stroke-width="1"></line><g><rect x="191" y="119.5" width="34.4" height="13" rx="2.5" fill="#FFFFFF" stroke="#0000C2" stroke-width="0.8" opacity="0.9"></rect><text x="208.2" y="126.5" text-anchor="middle" dominant-baseline="middle" font-size="7.5" fill="#0000C2">BUS2</text></g></g><text x="175" y="126.5" font-size="7" fill="#000000" dominant-baseline="middle" text-anchor="end">10</text></g><g><g class="sch-pin"><rect x="4" y="134" width="87" height="14" fill="transparent"></rect><line x1="91" y1="141" x2="80" y2="141" stroke="#000000" stroke-width="1"></line><g><rect x="50.2" y="134.5" width="28.799999999999997" height="13" rx="2.5" fill="#FFFFFF" stroke="#000000" stroke-width="0.8" opacity="0.9"></rect><text x="64.6" y="141.5" text-anchor="middle" dominant-baseline="middle" font-size="7.5" fill="#000000">GND</text></g></g><text x="95" y="141.5" font-size="7" fill="#000000" dominant-baseline="middle">8</text></g><g><g class="sch-pin"><rect x="179" y="134" width="87" height="14" fill="transparent"></rect><line x1="179" y1="141" x2="190" y2="141" stroke="#000000" stroke-width="1"></line><g><rect x="191" y="134.5" width="34.4" height="13" rx="2.5" fill="#FFFFFF" stroke="#0000C2" stroke-width="0.8" opacity="0.9"></rect><text x="208.2" y="141.5" text-anchor="middle" dominant-baseline="middle" font-size="7.5" fill="#0000C2">BUS3</text></g></g><text x="175" y="141.5" font-size="7" fill="#000000" dominant-baseline="middle" text-anchor="end">9</text></g></g><g><g class="sch-handle"><text x="411" y="18" font-size="9" fill="#008484" font-weight="700">U17</text><text x="499" y="18" font-size="8" fill="#000000" text-anchor="end">74HC193</text><rect x="411" y="26" width="88" height="128" fill="#FFFFC2" stroke="#840000" stroke-width="1" rx="2"></rect></g><g><g class="sch-pin"><rect x="324" y="29" width="87" height="14" fill="transparent"></rect><line x1="411" y1="36" x2="400" y2="36" stroke="#000000" stroke-width="1"></line><g><rect x="364.6" y="29.5" width="34.4" height="13" rx="2.5" fill="#FFFFFF" stroke="#0000C2" stroke-width="0.8" opacity="0.9"></rect><text x="381.8" y="36.5" text-anchor="middle" dominant-baseline="middle" font-size="7.5" fill="#0000C2">BUS5</text></g></g><text x="415" y="36.5" font-size="7" fill="#000000" dominant-baseline="middle">1</text></g><g><g class="sch-pin"><rect x="499" y="29" width="87" height="14" fill="transparent"></rect><line x1="499" y1="36" x2="510" y2="36" stroke="#000000" stroke-width="1"></line><g><rect x="511" y="29.5" width="28.799999999999997" height="13" rx="2.5" fill="#FFFFFF" stroke="#840000" stroke-width="0.8" opacity="0.9"></rect><text x="525.4" y="36.5" text-anchor="middle" dominant-baseline="middle" font-size="7.5" fill="#840000">VCC</text></g></g><text x="495" y="36.5" font-size="7" fill="#000000" dominant-baseline="middle" text-anchor="end">16</text></g><g><g class="sch-pin"><rect x="324" y="44" width="87" height="14" fill="transparent"></rect><line x1="411" y1="51" x2="400" y2="51" stroke="#000000" stroke-width="1"></line><g><rect x="370.2" y="44.5" width="28.799999999999997" height="13" rx="2.5" fill="#FFFFFF" stroke="#008400" stroke-width="0.8" opacity="0.9"></rect><text x="384.59999999999997" y="51.5" text-anchor="middle" dominant-baseline="middle" font-size="7.5" fill="#008400">SP5</text></g></g><text x="415" y="51.5" font-size="7" fill="#000000" dominant-baseline="middle">2</text></g><g><g class="sch-pin"><rect x="499" y="44" width="87" height="14" fill="transparent"></rect><line x1="499" y1="51" x2="510" y2="51" stroke="#000000" stroke-width="1"></line><g><rect x="511" y="44.5" width="34.4" height="13" rx="2.5" fill="#FFFFFF" stroke="#0000C2" stroke-width="0.8" opacity="0.9"></rect><text x="528.2" y="51.5" text-anchor="middle" dominant-baseline="middle" font-size="7.5" fill="#0000C2">BUS4</text></g></g><text x="495" y="51.5" font-size="7" fill="#000000" dominant-baseline="middle" text-anchor="end">15</text></g><g><g class="sch-pin"><rect x="324" y="59" width="87" height="14" fill="transparent"></rect><line x1="411" y1="66" x2="400" y2="66" stroke="#000000" stroke-width="1"></line><g><rect x="370.2" y="59.5" width="28.799999999999997" height="13" rx="2.5" fill="#FFFFFF" stroke="#008400" stroke-width="0.8" opacity="0.9"></rect><text x="384.59999999999997" y="66.5" text-anchor="middle" dominant-baseline="middle" font-size="7.5" fill="#008400">SP4</text></g></g><text x="415" y="66.5" font-size="7" fill="#000000" dominant-baseline="middle">3</text></g><g><g class="sch-pin"><rect x="499" y="59" width="87" height="14" fill="transparent"></rect><line x1="499" y1="66" x2="510" y2="66" stroke="#000000" stroke-width="1"></line><g><rect x="511" y="59.5" width="28.799999999999997" height="13" rx="2.5" fill="#FFFFFF" stroke="#000000" stroke-width="0.8" opacity="0.9"></rect><text x="525.4" y="66.5" text-anchor="middle" dominant-baseline="middle" font-size="7.5" fill="#000000">GND</text></g></g><text x="495" y="66.5" font-size="7" fill="#000000" dominant-baseline="middle" text-anchor="end">14</text></g><g><g class="sch-pin"><rect x="324" y="74" width="87" height="14" fill="transparent"></rect><line x1="411" y1="81" x2="400" y2="81" stroke="#000000" stroke-width="1"></line><g><rect x="364.6" y="74.5" width="34.4" height="13" rx="2.5" fill="#FFFFFF" stroke="#008400" stroke-width="0.8" opacity="0.9"></rect><text x="381.8" y="81.5" text-anchor="middle" dominant-baseline="middle" font-size="7.5" fill="#008400">SPCB</text></g></g><text x="415" y="81.5" font-size="7" fill="#000000" dominant-baseline="middle">4</text></g><g><g class="sch-pin"><rect x="499" y="74" width="87" height="14" fill="transparent"></rect><line x1="499" y1="81" x2="510" y2="81" stroke="#000000" stroke-width="1"></line><g stroke="#840000" stroke-width="1"><line x1="507" y1="78" x2="513" y2="84"></line><line x1="507" y1="84" x2="513" y2="78"></line></g></g><text x="495" y="81.5" font-size="7" fill="#000000" dominant-baseline="middle" text-anchor="end">13</text></g><g><g class="sch-pin"><rect x="324" y="89" width="87" height="14" fill="transparent"></rect><line x1="411" y1="96" x2="400" y2="96" stroke="#000000" stroke-width="1"></line><g><rect x="364.6" y="89.5" width="34.4" height="13" rx="2.5" fill="#FFFFFF" stroke="#008400" stroke-width="0.8" opacity="0.9"></rect><text x="381.8" y="96.5" text-anchor="middle" dominant-baseline="middle" font-size="7.5" fill="#008400">SPCU</text></g></g><text x="415" y="96.5" font-size="7" fill="#000000" dominant-baseline="middle">5</text></g><g><g class="sch-pin"><rect x="499" y="89" width="87" height="14" fill="transparent"></rect><line x1="499" y1="96" x2="510" y2="96" stroke="#000000" stroke-width="1"></line><g stroke="#840000" stroke-width="1"><line x1="507" y1="93" x2="513" y2="99"></line><line x1="507" y1="99" x2="513" y2="93"></line></g></g><text x="495" y="96.5" font-size="7" fill="#000000" dominant-baseline="middle" text-anchor="end">12</text></g><g><g class="sch-pin"><rect x="324" y="104" width="87" height="14" fill="transparent"></rect><line x1="411" y1="111" x2="400" y2="111" stroke="#000000" stroke-width="1"></line><g><rect x="370.2" y="104.5" width="28.799999999999997" height="13" rx="2.5" fill="#FFFFFF" stroke="#008400" stroke-width="0.8" opacity="0.9"></rect><text x="384.59999999999997" y="111.5" text-anchor="middle" dominant-baseline="middle" font-size="7.5" fill="#008400">SP6</text></g></g><text x="415" y="111.5" font-size="7" fill="#000000" dominant-baseline="middle">6</text></g><g><g class="sch-pin"><rect x="499" y="104" width="87" height="14" fill="transparent"></rect><line x1="499" y1="111" x2="510" y2="111" stroke="#000000" stroke-width="1"></line><g><rect x="511" y="104.5" width="34.4" height="13" rx="2.5" fill="#FFFFFF" stroke="#008400" stroke-width="0.8" opacity="0.9"></rect><text x="528.2" y="111.5" text-anchor="middle" dominant-baseline="middle" font-size="7.5" fill="#008400">SPL~</text></g></g><text x="495" y="111.5" font-size="7" fill="#000000" dominant-baseline="middle" text-anchor="end">11</text></g><g><g class="sch-pin"><rect x="324" y="119" width="87" height="14" fill="transparent"></rect><line x1="411" y1="126" x2="400" y2="126" stroke="#000000" stroke-width="1"></line><g><rect x="370.2" y="119.5" width="28.799999999999997" height="13" rx="2.5" fill="#FFFFFF" stroke="#008400" stroke-width="0.8" opacity="0.9"></rect><text x="384.59999999999997" y="126.5" text-anchor="middle" dominant-baseline="middle" font-size="7.5" fill="#008400">SP7</text></g></g><text x="415" y="126.5" font-size="7" fill="#000000" dominant-baseline="middle">7</text></g><g><g class="sch-pin"><rect x="499" y="119" width="87" height="14" fill="transparent"></rect><line x1="499" y1="126" x2="510" y2="126" stroke="#000000" stroke-width="1"></line><g><rect x="511" y="119.5" width="34.4" height="13" rx="2.5" fill="#FFFFFF" stroke="#0000C2" stroke-width="0.8" opacity="0.9"></rect><text x="528.2" y="126.5" text-anchor="middle" dominant-baseline="middle" font-size="7.5" fill="#0000C2">BUS6</text></g></g><text x="495" y="126.5" font-size="7" fill="#000000" dominant-baseline="middle" text-anchor="end">10</text></g><g><g class="sch-pin"><rect x="324" y="134" width="87" height="14" fill="transparent"></rect><line x1="411" y1="141" x2="400" y2="141" stroke="#000000" stroke-width="1"></line><g><rect x="370.2" y="134.5" width="28.799999999999997" height="13" rx="2.5" fill="#FFFFFF" stroke="#000000" stroke-width="0.8" opacity="0.9"></rect><text x="384.59999999999997" y="141.5" text-anchor="middle" dominant-baseline="middle" font-size="7.5" fill="#000000">GND</text></g></g><text x="415" y="141.5" font-size="7" fill="#000000" dominant-baseline="middle">8</text></g><g><g class="sch-pin"><rect x="499" y="134" width="87" height="14" fill="transparent"></rect><line x1="499" y1="141" x2="510" y2="141" stroke="#000000" stroke-width="1"></line><g><rect x="511" y="134.5" width="34.4" height="13" rx="2.5" fill="#FFFFFF" stroke="#0000C2" stroke-width="0.8" opacity="0.9"></rect><text x="528.2" y="141.5" text-anchor="middle" dominant-baseline="middle" font-size="7.5" fill="#0000C2">BUS7</text></g></g><text x="495" y="141.5" font-size="7" fill="#000000" dominant-baseline="middle" text-anchor="end">9</text></g></g><g><g class="sch-handle"><text x="731" y="18" font-size="9" fill="#008484" font-weight="700">U18</text><text x="819" y="18" font-size="8" fill="#000000" text-anchor="end">74HC245</text><rect x="731" y="26" width="88" height="158" fill="#FFFFC2" stroke="#840000" stroke-width="1" rx="2"></rect></g><g><g class="sch-pin"><rect x="644" y="29" width="87" height="14" fill="transparent"></rect><line x1="731" y1="36" x2="720" y2="36" stroke="#000000" stroke-width="1"></line><g><rect x="690.2" y="29.5" width="28.799999999999997" height="13" rx="2.5" fill="#FFFFFF" stroke="#840000" stroke-width="0.8" opacity="0.9"></rect><text x="704.6" y="36.5" text-anchor="middle" dominant-baseline="middle" font-size="7.5" fill="#840000">VCC</text></g></g><text x="735" y="36.5" font-size="7" fill="#000000" dominant-baseline="middle">1</text></g><g><g class="sch-pin"><rect x="819" y="29" width="87" height="14" fill="transparent"></rect><line x1="819" y1="36" x2="830" y2="36" stroke="#000000" stroke-width="1"></line><g><rect x="831" y="29.5" width="28.799999999999997" height="13" rx="2.5" fill="#FFFFFF" stroke="#840000" stroke-width="0.8" opacity="0.9"></rect><text x="845.4" y="36.5" text-anchor="middle" dominant-baseline="middle" font-size="7.5" fill="#840000">VCC</text></g></g><text x="815" y="36.5" font-size="7" fill="#000000" dominant-baseline="middle" text-anchor="end">20</text></g><g><g class="sch-pin"><rect x="644" y="44" width="87" height="14" fill="transparent"></rect><line x1="731" y1="51" x2="720" y2="51" stroke="#000000" stroke-width="1"></line><g><rect x="690.2" y="44.5" width="28.799999999999997" height="13" rx="2.5" fill="#FFFFFF" stroke="#008400" stroke-width="0.8" opacity="0.9"></rect><text x="704.6" y="51.5" text-anchor="middle" dominant-baseline="middle" font-size="7.5" fill="#008400">SP0</text></g></g><text x="735" y="51.5" font-size="7" fill="#000000" dominant-baseline="middle">2</text></g><g><g class="sch-pin"><rect x="819" y="44" width="87" height="14" fill="transparent"></rect><line x1="819" y1="51" x2="830" y2="51" stroke="#000000" stroke-width="1"></line><g><rect x="831" y="44.5" width="28.799999999999997" height="13" rx="2.5" fill="#FFFFFF" stroke="#840000" stroke-width="0.8" opacity="0.9"></rect><text x="845.4" y="51.5" text-anchor="middle" dominant-baseline="middle" font-size="7.5" fill="#840000">VCC</text></g></g><text x="815" y="51.5" font-size="7" fill="#000000" dominant-baseline="middle" text-anchor="end">19</text></g><g><g class="sch-pin"><rect x="644" y="59" width="87" height="14" fill="transparent"></rect><line x1="731" y1="66" x2="720" y2="66" stroke="#000000" stroke-width="1"></line><g><rect x="690.2" y="59.5" width="28.799999999999997" height="13" rx="2.5" fill="#FFFFFF" stroke="#008400" stroke-width="0.8" opacity="0.9"></rect><text x="704.6" y="66.5" text-anchor="middle" dominant-baseline="middle" font-size="7.5" fill="#008400">SP1</text></g></g><text x="735" y="66.5" font-size="7" fill="#000000" dominant-baseline="middle">3</text></g><g><g class="sch-pin"><rect x="819" y="59" width="87" height="14" fill="transparent"></rect><line x1="819" y1="66" x2="830" y2="66" stroke="#000000" stroke-width="1"></line><g><rect x="831" y="59.5" width="34.4" height="13" rx="2.5" fill="#FFFFFF" stroke="#0000C2" stroke-width="0.8" opacity="0.9"></rect><text x="848.2" y="66.5" text-anchor="middle" dominant-baseline="middle" font-size="7.5" fill="#0000C2">BUS0</text></g></g><text x="815" y="66.5" font-size="7" fill="#000000" dominant-baseline="middle" text-anchor="end">18</text></g><g><g class="sch-pin"><rect x="644" y="74" width="87" height="14" fill="transparent"></rect><line x1="731" y1="81" x2="720" y2="81" stroke="#000000" stroke-width="1"></line><g><rect x="690.2" y="74.5" width="28.799999999999997" height="13" rx="2.5" fill="#FFFFFF" stroke="#008400" stroke-width="0.8" opacity="0.9"></rect><text x="704.6" y="81.5" text-anchor="middle" dominant-baseline="middle" font-size="7.5" fill="#008400">SP2</text></g></g><text x="735" y="81.5" font-size="7" fill="#000000" dominant-baseline="middle">4</text></g><g><g class="sch-pin"><rect x="819" y="74" width="87" height="14" fill="transparent"></rect><line x1="819" y1="81" x2="830" y2="81" stroke="#000000" stroke-width="1"></line><g><rect x="831" y="74.5" width="34.4" height="13" rx="2.5" fill="#FFFFFF" stroke="#0000C2" stroke-width="0.8" opacity="0.9"></rect><text x="848.2" y="81.5" text-anchor="middle" dominant-baseline="middle" font-size="7.5" fill="#0000C2">BUS1</text></g></g><text x="815" y="81.5" font-size="7" fill="#000000" dominant-baseline="middle" text-anchor="end">17</text></g><g><g class="sch-pin"><rect x="644" y="89" width="87" height="14" fill="transparent"></rect><line x1="731" y1="96" x2="720" y2="96" stroke="#000000" stroke-width="1"></line><g><rect x="690.2" y="89.5" width="28.799999999999997" height="13" rx="2.5" fill="#FFFFFF" stroke="#008400" stroke-width="0.8" opacity="0.9"></rect><text x="704.6" y="96.5" text-anchor="middle" dominant-baseline="middle" font-size="7.5" fill="#008400">SP3</text></g></g><text x="735" y="96.5" font-size="7" fill="#000000" dominant-baseline="middle">5</text></g><g><g class="sch-pin"><rect x="819" y="89" width="87" height="14" fill="transparent"></rect><line x1="819" y1="96" x2="830" y2="96" stroke="#000000" stroke-width="1"></line><g><rect x="831" y="89.5" width="34.4" height="13" rx="2.5" fill="#FFFFFF" stroke="#0000C2" stroke-width="0.8" opacity="0.9"></rect><text x="848.2" y="96.5" text-anchor="middle" dominant-baseline="middle" font-size="7.5" fill="#0000C2">BUS2</text></g></g><text x="815" y="96.5" font-size="7" fill="#000000" dominant-baseline="middle" text-anchor="end">16</text></g><g><g class="sch-pin"><rect x="644" y="104" width="87" height="14" fill="transparent"></rect><line x1="731" y1="111" x2="720" y2="111" stroke="#000000" stroke-width="1"></line><g><rect x="690.2" y="104.5" width="28.799999999999997" height="13" rx="2.5" fill="#FFFFFF" stroke="#008400" stroke-width="0.8" opacity="0.9"></rect><text x="704.6" y="111.5" text-anchor="middle" dominant-baseline="middle" font-size="7.5" fill="#008400">SP4</text></g></g><text x="735" y="111.5" font-size="7" fill="#000000" dominant-baseline="middle">6</text></g><g><g class="sch-pin"><rect x="819" y="104" width="87" height="14" fill="transparent"></rect><line x1="819" y1="111" x2="830" y2="111" stroke="#000000" stroke-width="1"></line><g><rect x="831" y="104.5" width="34.4" height="13" rx="2.5" fill="#FFFFFF" stroke="#0000C2" stroke-width="0.8" opacity="0.9"></rect><text x="848.2" y="111.5" text-anchor="middle" dominant-baseline="middle" font-size="7.5" fill="#0000C2">BUS3</text></g></g><text x="815" y="111.5" font-size="7" fill="#000000" dominant-baseline="middle" text-anchor="end">15</text></g><g><g class="sch-pin"><rect x="644" y="119" width="87" height="14" fill="transparent"></rect><line x1="731" y1="126" x2="720" y2="126" stroke="#000000" stroke-width="1"></line><g><rect x="690.2" y="119.5" width="28.799999999999997" height="13" rx="2.5" fill="#FFFFFF" stroke="#008400" stroke-width="0.8" opacity="0.9"></rect><text x="704.6" y="126.5" text-anchor="middle" dominant-baseline="middle" font-size="7.5" fill="#008400">SP5</text></g></g><text x="735" y="126.5" font-size="7" fill="#000000" dominant-baseline="middle">7</text></g><g><g class="sch-pin"><rect x="819" y="119" width="87" height="14" fill="transparent"></rect><line x1="819" y1="126" x2="830" y2="126" stroke="#000000" stroke-width="1"></line><g><rect x="831" y="119.5" width="34.4" height="13" rx="2.5" fill="#FFFFFF" stroke="#0000C2" stroke-width="0.8" opacity="0.9"></rect><text x="848.2" y="126.5" text-anchor="middle" dominant-baseline="middle" font-size="7.5" fill="#0000C2">BUS4</text></g></g><text x="815" y="126.5" font-size="7" fill="#000000" dominant-baseline="middle" text-anchor="end">14</text></g><g><g class="sch-pin"><rect x="644" y="134" width="87" height="14" fill="transparent"></rect><line x1="731" y1="141" x2="720" y2="141" stroke="#000000" stroke-width="1"></line><g><rect x="690.2" y="134.5" width="28.799999999999997" height="13" rx="2.5" fill="#FFFFFF" stroke="#008400" stroke-width="0.8" opacity="0.9"></rect><text x="704.6" y="141.5" text-anchor="middle" dominant-baseline="middle" font-size="7.5" fill="#008400">SP6</text></g></g><text x="735" y="141.5" font-size="7" fill="#000000" dominant-baseline="middle">8</text></g><g><g class="sch-pin"><rect x="819" y="134" width="87" height="14" fill="transparent"></rect><line x1="819" y1="141" x2="830" y2="141" stroke="#000000" stroke-width="1"></line><g><rect x="831" y="134.5" width="34.4" height="13" rx="2.5" fill="#FFFFFF" stroke="#0000C2" stroke-width="0.8" opacity="0.9"></rect><text x="848.2" y="141.5" text-anchor="middle" dominant-baseline="middle" font-size="7.5" fill="#0000C2">BUS5</text></g></g><text x="815" y="141.5" font-size="7" fill="#000000" dominant-baseline="middle" text-anchor="end">13</text></g><g><g class="sch-pin"><rect x="644" y="149" width="87" height="14" fill="transparent"></rect><line x1="731" y1="156" x2="720" y2="156" stroke="#000000" stroke-width="1"></line><g><rect x="690.2" y="149.5" width="28.799999999999997" height="13" rx="2.5" fill="#FFFFFF" stroke="#008400" stroke-width="0.8" opacity="0.9"></rect><text x="704.6" y="156.5" text-anchor="middle" dominant-baseline="middle" font-size="7.5" fill="#008400">SP7</text></g></g><text x="735" y="156.5" font-size="7" fill="#000000" dominant-baseline="middle">9</text></g><g><g class="sch-pin"><rect x="819" y="149" width="87" height="14" fill="transparent"></rect><line x1="819" y1="156" x2="830" y2="156" stroke="#000000" stroke-width="1"></line><g><rect x="831" y="149.5" width="34.4" height="13" rx="2.5" fill="#FFFFFF" stroke="#0000C2" stroke-width="0.8" opacity="0.9"></rect><text x="848.2" y="156.5" text-anchor="middle" dominant-baseline="middle" font-size="7.5" fill="#0000C2">BUS6</text></g></g><text x="815" y="156.5" font-size="7" fill="#000000" dominant-baseline="middle" text-anchor="end">12</text></g><g><g class="sch-pin"><rect x="644" y="164" width="87" height="14" fill="transparent"></rect><line x1="731" y1="171" x2="720" y2="171" stroke="#000000" stroke-width="1"></line><g><rect x="690.2" y="164.5" width="28.799999999999997" height="13" rx="2.5" fill="#FFFFFF" stroke="#000000" stroke-width="0.8" opacity="0.9"></rect><text x="704.6" y="171.5" text-anchor="middle" dominant-baseline="middle" font-size="7.5" fill="#000000">GND</text></g></g><text x="735" y="171.5" font-size="7" fill="#000000" dominant-baseline="middle">10</text></g><g><g class="sch-pin"><rect x="819" y="164" width="87" height="14" fill="transparent"></rect><line x1="819" y1="171" x2="830" y2="171" stroke="#000000" stroke-width="1"></line><g><rect x="831" y="164.5" width="34.4" height="13" rx="2.5" fill="#FFFFFF" stroke="#0000C2" stroke-width="0.8" opacity="0.9"></rect><text x="848.2" y="171.5" text-anchor="middle" dominant-baseline="middle" font-size="7.5" fill="#0000C2">BUS7</text></g></g><text x="815" y="171.5" font-size="7" fill="#000000" dominant-baseline="middle" text-anchor="end">11</text></g></g><g><g class="sch-handle"><text x="91" y="222" font-size="9" fill="#008484" font-weight="700">RN4</text><text x="147" y="222" font-size="8" fill="#000000" text-anchor="end">220x9</text><rect x="91" y="230" width="56" height="158" fill="#FFFFC2" stroke="#840000" stroke-width="1" rx="2"></rect></g><g><g class="sch-pin"><rect x="4" y="233" width="87" height="14" fill="transparent"></rect><line x1="91" y1="240" x2="80" y2="240" stroke="#000000" stroke-width="1"></line><g><rect x="50.2" y="233.5" width="28.799999999999997" height="13" rx="2.5" fill="#FFFFFF" stroke="#000000" stroke-width="0.8" opacity="0.9"></rect><text x="64.6" y="240.5" text-anchor="middle" dominant-baseline="middle" font-size="7.5" fill="#000000">GND</text></g></g><text x="95" y="240.5" font-size="7" fill="#000000" dominant-baseline="middle">1</text></g><g><g class="sch-pin"><rect x="4" y="248" width="87" height="14" fill="transparent"></rect><line x1="91" y1="255" x2="80" y2="255" stroke="#000000" stroke-width="1"></line><g><rect x="50.2" y="248.5" width="28.799999999999997" height="13" rx="2.5" fill="#FFFFFF" stroke="#008400" stroke-width="0.8" opacity="0.9"></rect><text x="64.6" y="255.5" text-anchor="middle" dominant-baseline="middle" font-size="7.5" fill="#008400">SP0</text></g></g><text x="95" y="255.5" font-size="7" fill="#000000" dominant-baseline="middle">2</text></g><g><g class="sch-pin"><rect x="4" y="263" width="87" height="14" fill="transparent"></rect><line x1="91" y1="270" x2="80" y2="270" stroke="#000000" stroke-width="1"></line><g><rect x="50.2" y="263.5" width="28.799999999999997" height="13" rx="2.5" fill="#FFFFFF" stroke="#008400" stroke-width="0.8" opacity="0.9"></rect><text x="64.6" y="270.5" text-anchor="middle" dominant-baseline="middle" font-size="7.5" fill="#008400">SP1</text></g></g><text x="95" y="270.5" font-size="7" fill="#000000" dominant-baseline="middle">3</text></g><g><g class="sch-pin"><rect x="4" y="278" width="87" height="14" fill="transparent"></rect><line x1="91" y1="285" x2="80" y2="285" stroke="#000000" stroke-width="1"></line><g><rect x="50.2" y="278.5" width="28.799999999999997" height="13" rx="2.5" fill="#FFFFFF" stroke="#008400" stroke-width="0.8" opacity="0.9"></rect><text x="64.6" y="285.5" text-anchor="middle" dominant-baseline="middle" font-size="7.5" fill="#008400">SP2</text></g></g><text x="95" y="285.5" font-size="7" fill="#000000" dominant-baseline="middle">4</text></g><g><g class="sch-pin"><rect x="4" y="293" width="87" height="14" fill="transparent"></rect><line x1="91" y1="300" x2="80" y2="300" stroke="#000000" stroke-width="1"></line><g><rect x="50.2" y="293.5" width="28.799999999999997" height="13" rx="2.5" fill="#FFFFFF" stroke="#008400" stroke-width="0.8" opacity="0.9"></rect><text x="64.6" y="300.5" text-anchor="middle" dominant-baseline="middle" font-size="7.5" fill="#008400">SP3</text></g></g><text x="95" y="300.5" font-size="7" fill="#000000" dominant-baseline="middle">5</text></g><g><g class="sch-pin"><rect x="4" y="308" width="87" height="14" fill="transparent"></rect><line x1="91" y1="315" x2="80" y2="315" stroke="#000000" stroke-width="1"></line><g><rect x="50.2" y="308.5" width="28.799999999999997" height="13" rx="2.5" fill="#FFFFFF" stroke="#008400" stroke-width="0.8" opacity="0.9"></rect><text x="64.6" y="315.5" text-anchor="middle" dominant-baseline="middle" font-size="7.5" fill="#008400">SP4</text></g></g><text x="95" y="315.5" font-size="7" fill="#000000" dominant-baseline="middle">6</text></g><g><g class="sch-pin"><rect x="4" y="323" width="87" height="14" fill="transparent"></rect><line x1="91" y1="330" x2="80" y2="330" stroke="#000000" stroke-width="1"></line><g><rect x="50.2" y="323.5" width="28.799999999999997" height="13" rx="2.5" fill="#FFFFFF" stroke="#008400" stroke-width="0.8" opacity="0.9"></rect><text x="64.6" y="330.5" text-anchor="middle" dominant-baseline="middle" font-size="7.5" fill="#008400">SP5</text></g></g><text x="95" y="330.5" font-size="7" fill="#000000" dominant-baseline="middle">7</text></g><g><g class="sch-pin"><rect x="4" y="338" width="87" height="14" fill="transparent"></rect><line x1="91" y1="345" x2="80" y2="345" stroke="#000000" stroke-width="1"></line><g><rect x="50.2" y="338.5" width="28.799999999999997" height="13" rx="2.5" fill="#FFFFFF" stroke="#008400" stroke-width="0.8" opacity="0.9"></rect><text x="64.6" y="345.5" text-anchor="middle" dominant-baseline="middle" font-size="7.5" fill="#008400">SP6</text></g></g><text x="95" y="345.5" font-size="7" fill="#000000" dominant-baseline="middle">8</text></g><g><g class="sch-pin"><rect x="4" y="353" width="87" height="14" fill="transparent"></rect><line x1="91" y1="360" x2="80" y2="360" stroke="#000000" stroke-width="1"></line><g><rect x="50.2" y="353.5" width="28.799999999999997" height="13" rx="2.5" fill="#FFFFFF" stroke="#008400" stroke-width="0.8" opacity="0.9"></rect><text x="64.6" y="360.5" text-anchor="middle" dominant-baseline="middle" font-size="7.5" fill="#008400">SP7</text></g></g><text x="95" y="360.5" font-size="7" fill="#000000" dominant-baseline="middle">9</text></g><g><g class="sch-pin"><rect x="4" y="368" width="87" height="14" fill="transparent"></rect><line x1="91" y1="375" x2="80" y2="375" stroke="#000000" stroke-width="1"></line></g><text x="95" y="375.5" font-size="7" fill="#000000" dominant-baseline="middle">10</text></g></g><g><g class="sch-handle"><text x="411" y="222" font-size="9" fill="#008484" font-weight="700">LB4</text><text x="467" y="222" font-size="8" fill="#000000" text-anchor="end">SP</text><rect x="411" y="230" width="56" height="158" fill="#FFFFC2" stroke="#840000" stroke-width="1" rx="2"></rect><polygon points="441,236 441,244 449,240" fill="#ffd60a" opacity="0.75"></polygon><polygon points="441,251 441,259 449,255" fill="#ffd60a" opacity="0.75"></polygon><polygon points="441,266 441,274 449,270" fill="#ffd60a" opacity="0.75"></polygon><polygon points="441,281 441,289 449,285" fill="#ffd60a" opacity="0.75"></polygon><polygon points="441,296 441,304 449,300" fill="#ffd60a" opacity="0.75"></polygon><polygon points="441,311 441,319 449,315" fill="#ffd60a" opacity="0.75"></polygon><polygon points="441,326 441,334 449,330" fill="#ffd60a" opacity="0.75"></polygon><polygon points="441,341 441,349 449,345" fill="#ffd60a" opacity="0.75"></polygon><polygon points="441,356 441,364 449,360" fill="#ffd60a" opacity="0.75"></polygon><polygon points="441,371 441,379 449,375" fill="#ffd60a" opacity="0.75"></polygon></g><g><g class="sch-pin"><rect x="324" y="233" width="87" height="14" fill="transparent"></rect><line x1="411" y1="240" x2="400" y2="240" stroke="#000000" stroke-width="1"></line><g><rect x="370.2" y="233.5" width="28.799999999999997" height="13" rx="2.5" fill="#FFFFFF" stroke="#008400" stroke-width="0.8" opacity="0.9"></rect><text x="384.59999999999997" y="240.5" text-anchor="middle" dominant-baseline="middle" font-size="7.5" fill="#008400">SP0</text></g></g><text x="415" y="240.5" font-size="7" fill="#000000" dominant-baseline="middle">1</text></g><g><g class="sch-pin"><rect x="324" y="248" width="87" height="14" fill="transparent"></rect><line x1="411" y1="255" x2="400" y2="255" stroke="#000000" stroke-width="1"></line><g><rect x="370.2" y="248.5" width="28.799999999999997" height="13" rx="2.5" fill="#FFFFFF" stroke="#008400" stroke-width="0.8" opacity="0.9"></rect><text x="384.59999999999997" y="255.5" text-anchor="middle" dominant-baseline="middle" font-size="7.5" fill="#008400">SP1</text></g></g><text x="415" y="255.5" font-size="7" fill="#000000" dominant-baseline="middle">2</text></g><g><g class="sch-pin"><rect x="324" y="263" width="87" height="14" fill="transparent"></rect><line x1="411" y1="270" x2="400" y2="270" stroke="#000000" stroke-width="1"></line><g><rect x="370.2" y="263.5" width="28.799999999999997" height="13" rx="2.5" fill="#FFFFFF" stroke="#008400" stroke-width="0.8" opacity="0.9"></rect><text x="384.59999999999997" y="270.5" text-anchor="middle" dominant-baseline="middle" font-size="7.5" fill="#008400">SP2</text></g></g><text x="415" y="270.5" font-size="7" fill="#000000" dominant-baseline="middle">3</text></g><g><g class="sch-pin"><rect x="324" y="278" width="87" height="14" fill="transparent"></rect><line x1="411" y1="285" x2="400" y2="285" stroke="#000000" stroke-width="1"></line><g><rect x="370.2" y="278.5" width="28.799999999999997" height="13" rx="2.5" fill="#FFFFFF" stroke="#008400" stroke-width="0.8" opacity="0.9"></rect><text x="384.59999999999997" y="285.5" text-anchor="middle" dominant-baseline="middle" font-size="7.5" fill="#008400">SP3</text></g></g><text x="415" y="285.5" font-size="7" fill="#000000" dominant-baseline="middle">4</text></g><g><g class="sch-pin"><rect x="324" y="293" width="87" height="14" fill="transparent"></rect><line x1="411" y1="300" x2="400" y2="300" stroke="#000000" stroke-width="1"></line><g><rect x="370.2" y="293.5" width="28.799999999999997" height="13" rx="2.5" fill="#FFFFFF" stroke="#008400" stroke-width="0.8" opacity="0.9"></rect><text x="384.59999999999997" y="300.5" text-anchor="middle" dominant-baseline="middle" font-size="7.5" fill="#008400">SP4</text></g></g><text x="415" y="300.5" font-size="7" fill="#000000" dominant-baseline="middle">5</text></g><g><g class="sch-pin"><rect x="324" y="308" width="87" height="14" fill="transparent"></rect><line x1="411" y1="315" x2="400" y2="315" stroke="#000000" stroke-width="1"></line><g><rect x="370.2" y="308.5" width="28.799999999999997" height="13" rx="2.5" fill="#FFFFFF" stroke="#008400" stroke-width="0.8" opacity="0.9"></rect><text x="384.59999999999997" y="315.5" text-anchor="middle" dominant-baseline="middle" font-size="7.5" fill="#008400">SP5</text></g></g><text x="415" y="315.5" font-size="7" fill="#000000" dominant-baseline="middle">6</text></g><g><g class="sch-pin"><rect x="324" y="323" width="87" height="14" fill="transparent"></rect><line x1="411" y1="330" x2="400" y2="330" stroke="#000000" stroke-width="1"></line><g><rect x="370.2" y="323.5" width="28.799999999999997" height="13" rx="2.5" fill="#FFFFFF" stroke="#008400" stroke-width="0.8" opacity="0.9"></rect><text x="384.59999999999997" y="330.5" text-anchor="middle" dominant-baseline="middle" font-size="7.5" fill="#008400">SP6</text></g></g><text x="415" y="330.5" font-size="7" fill="#000000" dominant-baseline="middle">7</text></g><g><g class="sch-pin"><rect x="324" y="338" width="87" height="14" fill="transparent"></rect><line x1="411" y1="345" x2="400" y2="345" stroke="#000000" stroke-width="1"></line><g><rect x="370.2" y="338.5" width="28.799999999999997" height="13" rx="2.5" fill="#FFFFFF" stroke="#008400" stroke-width="0.8" opacity="0.9"></rect><text x="384.59999999999997" y="345.5" text-anchor="middle" dominant-baseline="middle" font-size="7.5" fill="#008400">SP7</text></g></g><text x="415" y="345.5" font-size="7" fill="#000000" dominant-baseline="middle">8</text></g><g><g class="sch-pin"><rect x="324" y="353" width="87" height="14" fill="transparent"></rect><line x1="411" y1="360" x2="400" y2="360" stroke="#000000" stroke-width="1"></line></g><text x="415" y="360.5" font-size="7" fill="#000000" dominant-baseline="middle">9</text></g><g><g class="sch-pin"><rect x="324" y="368" width="87" height="14" fill="transparent"></rect><line x1="411" y1="375" x2="400" y2="375" stroke="#000000" stroke-width="1"></line></g><text x="415" y="375.5" font-size="7" fill="#000000" dominant-baseline="middle">10</text></g></g></svg>